<?xml version="1.0"?>
<svg xmlns="http://www.w3.org/2000/svg" viewBox="0 0 74 74" width="512" height="512"><g id="Icons"><path d="M24.544,72a1,1,0,0,1-.943-1.331l7.3-20.85H22.849a1,1,0,0,1-.864-1.5L31,32.867H19.035a1,1,0,0,1-.9-1.443L32.407,2.557A1,1,0,0,1,33.3,2H53.27A1,1,0,0,1,54.1,3.557L45.162,16.881h9.8a1,1,0,0,1,.826,1.563L43.107,37.036H52.94a1,1,0,0,1,.758,1.653L25.3,71.653A1,1,0,0,1,24.544,72Zm.046-24.18h7.724a1,1,0,0,1,.944,1.331L27.235,66.345,50.759,39.036H41.215a1,1,0,0,1-.826-1.563L53.073,18.881H43.287a1,1,0,0,1-.831-1.557L51.4,4H33.924L20.645,30.867H32.738a1,1,0,0,1,.864,1.5Z"/></g></svg>
